<!-- Generated by IcoMoon.io -->
<svg version="1.1" xmlns="http://www.w3.org/2000/svg" width="48" height="48" viewBox="0 0 48 48">
<title>defaultIcon</title>
<path d="M16 36c0 0.546-0.108 1.060-0.302 1.53-0.202 0.488-0.5 0.928-0.87 1.3s-0.812 0.668-1.3 0.87c-0.468 0.192-0.982 0.3-1.528 0.3s-1.060-0.108-1.53-0.302c-0.488-0.202-0.928-0.5-1.3-0.87s-0.668-0.812-0.87-1.3c-0.192-0.468-0.3-0.982-0.3-1.528s0.108-1.060 0.302-1.53c0.202-0.488 0.5-0.928 0.87-1.3s0.812-0.668 1.3-0.87c0.468-0.192 0.982-0.3 1.528-0.3s1.060 0.108 1.53 0.302c0.488 0.202 0.928 0.5 1.3 0.87s0.668 0.812 0.87 1.3c0.192 0.468 0.3 0.982 0.3 1.528zM44 32v-26c0-0.1-0.008-0.214-0.028-0.328-0.182-1.090-1.212-1.826-2.302-1.644l-24 4c-0.952 0.162-1.67 0.984-1.67 1.972v19.070c-0.302-0.174-0.616-0.33-0.94-0.464-0.946-0.39-1.98-0.606-3.060-0.606s-2.114 0.216-3.060 0.606c-0.98 0.406-1.86 1-2.596 1.736s-1.332 1.618-1.738 2.598c-0.39 0.946-0.606 1.98-0.606 3.060s0.216 2.114 0.606 3.060c0.406 0.98 1 1.86 1.736 2.596s1.616 1.33 2.596 1.736c0.948 0.392 1.982 0.608 3.062 0.608s2.114-0.216 3.060-0.606c0.98-0.406 1.86-1 2.596-1.736s1.33-1.616 1.736-2.596c0.392-0.948 0.608-1.982 0.608-3.062v-24.306l20-3.334v16.71c-0.302-0.174-0.616-0.33-0.94-0.464-0.946-0.39-1.98-0.606-3.060-0.606s-2.114 0.216-3.060 0.606c-0.98 0.406-1.86 1-2.596 1.736s-1.33 1.616-1.736 2.596c-0.392 0.948-0.608 1.982-0.608 3.062s0.216 2.114 0.606 3.060c0.406 0.98 1 1.86 1.736 2.596s1.616 1.33 2.596 1.736c0.948 0.392 1.982 0.608 3.062 0.608s2.114-0.216 3.060-0.606c0.98-0.406 1.86-1 2.596-1.736s1.33-1.616 1.736-2.596c0.392-0.948 0.608-1.982 0.608-3.062zM40 32c0 0.546-0.108 1.060-0.302 1.53-0.202 0.488-0.5 0.928-0.87 1.3s-0.812 0.668-1.3 0.87c-0.468 0.192-0.982 0.3-1.528 0.3s-1.060-0.108-1.53-0.302c-0.488-0.202-0.928-0.5-1.3-0.87s-0.668-0.812-0.87-1.3c-0.192-0.468-0.3-0.982-0.3-1.528s0.108-1.060 0.302-1.53c0.202-0.488 0.5-0.928 0.87-1.3 0.37-0.37 0.812-0.668 1.3-0.87 0.468-0.192 0.982-0.3 1.528-0.3s1.060 0.108 1.53 0.302c0.488 0.202 0.928 0.5 1.3 0.87 0.37 0.37 0.668 0.812 0.87 1.3 0.192 0.468 0.3 0.982 0.3 1.528z"></path>
</svg>
