<!-- Generated by IcoMoon.io -->
<svg version="1.1" xmlns="http://www.w3.org/2000/svg" width="48" height="48" viewBox="0 0 48 48">
<title>forward</title>
<path d="M28.364 34.811v-21.622l13.9 10.811zM4.364 34.811v-21.622l13.9 10.811zM3.521 40.994l19.636-15.273c0.548-0.425 0.836-1.060 0.842-1.702v15.253c0 1.204 0.977 2.182 2.182 2.182 0.506 0 0.973-0.172 1.34-0.46l19.636-15.273c0.951-0.74 1.121-2.11 0.382-3.061-0.118-0.151-0.251-0.281-0.382-0.382l-19.636-15.273c-0.951-0.74-2.321-0.569-3.061 0.382-0.312 0.401-0.463 0.875-0.46 1.34v15.251c-0.004-0.46-0.155-0.925-0.46-1.318-0.118-0.151-0.251-0.281-0.382-0.382l-19.636-15.273c-0.951-0.74-2.321-0.569-3.061 0.382-0.312 0.401-0.463 0.875-0.46 1.34v30.546c0 1.204 0.977 2.182 2.182 2.182 0.506 0 0.973-0.172 1.34-0.46z"></path>
</svg>
