<!-- Generated by IcoMoon.io -->
<svg version="1.1" xmlns="http://www.w3.org/2000/svg" width="48" height="48" viewBox="0 0 48 48">
<title>playlist</title>
<path d="M14.4 12h31.2c1.325 0 2.4-1.075 2.4-2.4s-1.075-2.4-2.4-2.4h-31.2c-1.325 0-2.4 1.075-2.4 2.4s1.075 2.4 2.4 2.4zM14.4 26.4h31.2c1.325 0 2.4-1.075 2.4-2.4s-1.075-2.4-2.4-2.4h-31.2c-1.325 0-2.4 1.075-2.4 2.4s1.075 2.4 2.4 2.4zM14.4 40.8h31.2c1.325 0 2.4-1.075 2.4-2.4s-1.075-2.4-2.4-2.4h-31.2c-1.325 0-2.4 1.075-2.4 2.4s1.075 2.4 2.4 2.4zM4.8 9.6c0-1.325-1.075-2.4-2.4-2.4s-2.4 1.075-2.4 2.4 1.075 2.4 2.4 2.4 2.4-1.075 2.4-2.4zM4.8 24c0-1.325-1.075-2.4-2.4-2.4s-2.4 1.075-2.4 2.4 1.075 2.4 2.4 2.4 2.4-1.075 2.4-2.4zM4.8 38.4c0-1.325-1.075-2.4-2.4-2.4s-2.4 1.075-2.4 2.4 1.075 2.4 2.4 2.4 2.4-1.075 2.4-2.4z"></path>
</svg>
