<!-- Generated by IcoMoon.io -->
<svg version="1.1" xmlns="http://www.w3.org/2000/svg" width="48" height="48" viewBox="0 0 48 48">
<title>prev</title>
<path d="M40.734 0.95c0.446-0.357 1.019-0.575 1.641-0.575 1.449 0 2.625 1.176 2.625 2.625v42c0.003 0.572-0.186 1.152-0.575 1.641-0.906 1.131-2.557 1.315-3.691 0.41l-26.25-21c-0.139-0.11-0.284-0.249-0.41-0.41-0.906-1.131-0.722-2.785 0.41-3.691zM39.749 8.463l-19.422 15.537 19.422 15.537zM8.25 5.625v36.75c0 1.449-1.176 2.625-2.625 2.625s-2.625-1.176-2.625-2.625v-36.75c0-1.449 1.176-2.625 2.625-2.625s2.625 1.176 2.625 2.625z"></path>
</svg>
