<!-- Generated by IcoMoon.io -->
<svg version="1.1" xmlns="http://www.w3.org/2000/svg" width="48" height="48" viewBox="0 0 48 48">
<title>repeat</title>
<path d="M8 22v-4c0-0.816 0.162-1.59 0.454-2.294 0.304-0.732 0.75-1.394 1.304-1.948s1.216-1 1.948-1.304c0.704-0.292 1.478-0.454 2.294-0.454h23.172l-4.586 4.586c-0.782 0.782-0.782 2.048 0 2.828s2.048 0.782 2.828 0l8-8c0.192-0.192 0.336-0.414 0.434-0.65 0.098-0.24 0.15-0.494 0.152-0.748 0-0.010 0-0.022 0-0.032-0.002-0.254-0.052-0.51-0.152-0.748-0.098-0.236-0.242-0.458-0.434-0.65l-8-8c-0.782-0.782-2.048-0.782-2.828 0s-0.782 2.048 0 2.828l4.586 4.586h-23.172c-1.35 0-2.644 0.268-3.824 0.758-1.226 0.508-2.326 1.25-3.248 2.17s-1.662 2.022-2.17 3.248c-0.49 1.18-0.758 2.474-0.758 3.824v4c0 1.104 0.896 2 2 2s2-0.896 2-2zM40 26v4c0 0.816-0.162 1.59-0.454 2.294-0.304 0.732-0.75 1.394-1.304 1.948s-1.216 1-1.948 1.304c-0.704 0.292-1.478 0.454-2.294 0.454h-23.172l4.586-4.586c0.782-0.782 0.782-2.048 0-2.828s-2.048-0.782-2.828 0l-8 8c-0.192 0.192-0.338 0.414-0.434 0.65-0.1 0.238-0.15 0.49-0.152 0.744 0 0.014 0 0.028 0 0.040 0.002 0.254 0.052 0.506 0.15 0.744 0.098 0.236 0.242 0.458 0.434 0.65l8 8c0.782 0.782 2.048 0.782 2.828 0s0.782-2.048 0-2.828l-4.584-4.586h23.172c1.35 0 2.644-0.268 3.824-0.758 1.226-0.508 2.326-1.25 3.246-2.17s1.664-2.022 2.17-3.246c0.492-1.182 0.76-2.476 0.76-3.826v-4c0-1.104-0.896-2-2-2s-2 0.896-2 2z"></path>
</svg>
