<!-- Generated by IcoMoon.io -->
<svg version="1.1" xmlns="http://www.w3.org/2000/svg" width="48" height="48" viewBox="0 0 48 48">
<title>search</title>
<path d="M33.698 33.254c-0.082 0.062-0.161 0.132-0.238 0.209s-0.144 0.154-0.209 0.238c-1.505 1.45-3.276 2.618-5.232 3.43-1.973 0.816-4.14 1.27-6.42 1.27s-4.447-0.454-6.425-1.272c-2.054-0.85-3.905-2.098-5.455-3.65s-2.798-3.401-3.65-5.455c-0.816-1.975-1.27-4.142-1.27-6.422s0.454-4.447 1.272-6.425c0.85-2.052 2.098-3.905 3.648-5.455s3.403-2.798 5.455-3.648c1.978-0.818 4.145-1.272 6.425-1.272s4.447 0.454 6.425 1.272c2.054 0.85 3.905 2.098 5.455 3.65s2.798 3.401 3.65 5.455c0.816 1.975 1.27 4.142 1.27 6.422s-0.454 4.447-1.272 6.425c-0.811 1.956-1.98 3.727-3.43 5.232zM47.296 43.903l-8.82-8.82c1.26-1.574 2.304-3.329 3.086-5.222 1.056-2.549 1.637-5.34 1.637-8.261s-0.581-5.712-1.637-8.261c-1.094-2.645-2.7-5.023-4.69-7.013s-4.368-3.595-7.013-4.69c-2.549-1.056-5.34-1.637-8.261-1.637s-5.712 0.581-8.261 1.637c-2.645 1.094-5.023 2.7-7.013 4.69s-3.595 4.368-4.69 7.013c-1.056 2.549-1.637 5.34-1.637 8.261s0.581 5.712 1.637 8.261c1.094 2.645 2.7 5.023 4.69 7.013s4.368 3.595 7.013 4.69c2.549 1.056 5.34 1.637 8.261 1.637s5.712-0.581 8.261-1.637c1.891-0.785 3.648-1.829 5.222-3.086l8.82 8.82c0.938 0.938 2.458 0.938 3.394 0s0.938-2.458 0-3.394z"></path>
</svg>
