<!-- Generated by IcoMoon.io -->
<svg version="1.1" xmlns="http://www.w3.org/2000/svg" width="48" height="48" viewBox="0 0 48 48">
<title>settings</title>
<path d="M32 24c0-1.080-0.216-2.114-0.606-3.060-0.406-0.98-1-1.86-1.736-2.596s-1.618-1.332-2.598-1.738c-0.946-0.39-1.98-0.606-3.060-0.606s-2.114 0.216-3.060 0.606c-0.98 0.406-1.86 1-2.596 1.736s-1.332 1.618-1.738 2.598c-0.39 0.946-0.606 1.98-0.606 3.060s0.216 2.114 0.606 3.060c0.406 0.98 1 1.86 1.736 2.596s1.616 1.33 2.596 1.736c0.948 0.392 1.982 0.608 3.062 0.608s2.114-0.216 3.060-0.606c0.98-0.406 1.86-1 2.596-1.736s1.33-1.616 1.736-2.596c0.392-0.948 0.608-1.982 0.608-3.062zM28 24c0 0.546-0.108 1.060-0.302 1.53-0.202 0.488-0.5 0.928-0.87 1.3s-0.812 0.668-1.3 0.87c-0.468 0.192-0.982 0.3-1.528 0.3s-1.060-0.108-1.53-0.302c-0.488-0.202-0.928-0.5-1.3-0.87s-0.668-0.812-0.87-1.3c-0.192-0.468-0.3-0.982-0.3-1.528s0.108-1.060 0.302-1.53c0.202-0.488 0.5-0.928 0.87-1.3s0.812-0.668 1.3-0.87c0.468-0.192 0.982-0.3 1.528-0.3s1.060 0.108 1.53 0.302c0.488 0.202 0.928 0.5 1.3 0.87s0.668 0.812 0.87 1.3c0.192 0.468 0.3 0.982 0.3 1.528zM40.63 30.808c0.092-0.21 0.224-0.382 0.384-0.514 0.114-0.094 0.244-0.168 0.38-0.218 0.132-0.048 0.278-0.076 0.426-0.076h0.18c0.81 0 1.586-0.162 2.296-0.456 0.736-0.304 1.396-0.75 1.948-1.302s0.998-1.212 1.302-1.948c0.292-0.708 0.454-1.484 0.454-2.294s-0.162-1.586-0.456-2.296c-0.304-0.736-0.75-1.396-1.302-1.948s-1.212-0.998-1.948-1.302c-0.708-0.292-1.484-0.454-2.294-0.454h-0.318c-0.22-0.002-0.43-0.056-0.616-0.152-0.132-0.068-0.25-0.158-0.348-0.266-0.094-0.1-0.174-0.22-0.234-0.358-0.006-0.058-0.008-0.118-0.008-0.178-0.092-0.212-0.128-0.438-0.108-0.656 0.012-0.148 0.050-0.292 0.112-0.426 0.058-0.128 0.142-0.252 0.236-0.348l0.124-0.124c0.572-0.572 1.006-1.236 1.3-1.946 0.304-0.736 0.456-1.518 0.456-2.298s-0.152-1.562-0.458-2.298c-0.294-0.71-0.73-1.372-1.306-1.948-0.572-0.572-1.236-1.006-1.946-1.3-0.736-0.304-1.518-0.456-2.298-0.456s-1.564 0.154-2.3 0.458c-0.71 0.294-1.372 0.73-1.944 1.302l-0.092 0.094c-0.166 0.16-0.366 0.272-0.576 0.332-0.144 0.040-0.292 0.056-0.438 0.046-0.142-0.010-0.286-0.044-0.436-0.11-0.202-0.088-0.374-0.22-0.506-0.38-0.094-0.114-0.168-0.244-0.218-0.38-0.050-0.134-0.078-0.28-0.078-0.428v-0.18c0-0.81-0.162-1.586-0.456-2.296-0.304-0.736-0.75-1.396-1.302-1.948s-1.212-0.998-1.948-1.302c-0.708-0.292-1.484-0.454-2.294-0.454s-1.586 0.162-2.296 0.456c-0.736 0.304-1.396 0.75-1.948 1.302s-0.996 1.212-1.3 1.946c-0.294 0.71-0.456 1.486-0.456 2.296v0.318c-0.002 0.22-0.056 0.43-0.152 0.616-0.068 0.132-0.158 0.25-0.266 0.348-0.1 0.094-0.22 0.174-0.358 0.234-0.058 0.006-0.118 0.008-0.178 0.008-0.212 0.092-0.438 0.128-0.656 0.108-0.15-0.012-0.294-0.050-0.428-0.11-0.128-0.060-0.252-0.142-0.348-0.236l-0.124-0.124c-0.572-0.572-1.236-1.006-1.946-1.3-0.736-0.304-1.518-0.456-2.298-0.456s-1.562 0.154-2.298 0.458c-0.708 0.294-1.372 0.73-1.946 1.306-0.572 0.572-1.006 1.236-1.3 1.946-0.304 0.736-0.456 1.518-0.456 2.298s0.154 1.562 0.458 2.298c0.294 0.708 0.73 1.372 1.302 1.942l0.094 0.094c0.16 0.166 0.272 0.366 0.332 0.576 0.040 0.144 0.056 0.292 0.046 0.438-0.010 0.142-0.044 0.286-0.108 0.43-0.012 0.032-0.026 0.068-0.042 0.104-0.082 0.218-0.216 0.406-0.382 0.55-0.114 0.098-0.24 0.174-0.378 0.228-0.132 0.052-0.278 0.082-0.388 0.086h-0.18c-0.81 0-1.586 0.162-2.296 0.456-0.734 0.304-1.394 0.75-1.946 1.302s-0.998 1.212-1.302 1.948c-0.294 0.708-0.456 1.484-0.456 2.294s0.162 1.586 0.456 2.296c0.304 0.736 0.75 1.396 1.302 1.948s1.212 0.998 1.948 1.302c0.708 0.292 1.484 0.454 2.294 0.454h0.318c0.22 0.002 0.43 0.056 0.616 0.152 0.132 0.068 0.25 0.158 0.348 0.266 0.096 0.104 0.178 0.226 0.242 0.376 0.092 0.212 0.128 0.438 0.108 0.656-0.012 0.148-0.050 0.292-0.112 0.426-0.058 0.128-0.142 0.252-0.236 0.348l-0.124 0.124c-0.572 0.572-1.006 1.236-1.3 1.946-0.304 0.736-0.456 1.518-0.456 2.298s0.152 1.562 0.458 2.298c0.294 0.71 0.73 1.372 1.306 1.948 0.572 0.572 1.236 1.006 1.946 1.3 0.736 0.304 1.518 0.456 2.298 0.456s1.562-0.152 2.298-0.458c0.71-0.294 1.372-0.73 1.944-1.302l0.094-0.096c0.166-0.16 0.366-0.272 0.576-0.332 0.144-0.040 0.292-0.056 0.438-0.046 0.142 0.010 0.286 0.044 0.43 0.108 0.032 0.012 0.068 0.026 0.104 0.042 0.218 0.082 0.406 0.216 0.55 0.382 0.098 0.112 0.174 0.24 0.228 0.378 0.050 0.132 0.082 0.278 0.084 0.388v0.182c0 0.81 0.162 1.586 0.456 2.296 0.304 0.736 0.75 1.396 1.302 1.948s1.212 0.998 1.948 1.302c0.71 0.292 1.486 0.454 2.296 0.454s1.586-0.162 2.296-0.456c0.736-0.304 1.396-0.75 1.948-1.302s0.998-1.212 1.302-1.948c0.294-0.71 0.456-1.486 0.456-2.296v-0.318c0.002-0.22 0.056-0.43 0.152-0.616 0.068-0.132 0.158-0.25 0.266-0.348 0.104-0.096 0.226-0.178 0.376-0.242 0.212-0.092 0.438-0.128 0.656-0.108 0.148 0.012 0.292 0.050 0.426 0.112 0.128 0.058 0.252 0.142 0.348 0.236l0.124 0.124c0.572 0.572 1.236 1.006 1.946 1.3 0.736 0.304 1.518 0.456 2.298 0.456s1.562-0.152 2.298-0.458c0.71-0.294 1.372-0.73 1.948-1.306 0.572-0.572 1.006-1.236 1.3-1.946 0.304-0.736 0.456-1.518 0.456-2.298s-0.152-1.562-0.458-2.298c-0.294-0.71-0.73-1.372-1.302-1.944l-0.096-0.094c-0.16-0.166-0.272-0.366-0.332-0.576-0.040-0.144-0.056-0.292-0.046-0.438 0.010-0.142 0.044-0.286 0.108-0.43zM36.97 29.192c-0.252 0.57-0.396 1.164-0.438 1.76-0.044 0.614 0.022 1.224 0.184 1.802 0.238 0.846 0.682 1.628 1.304 2.274l0.144 0.146c0.196 0.194 0.338 0.414 0.436 0.648 0.1 0.244 0.152 0.504 0.152 0.768s-0.050 0.524-0.152 0.768c-0.096 0.232-0.24 0.452-0.434 0.648-0.198 0.198-0.418 0.34-0.65 0.438-0.244 0.1-0.504 0.152-0.768 0.152s-0.524-0.050-0.768-0.152c-0.232-0.096-0.452-0.24-0.648-0.434l-0.122-0.122c-0.46-0.452-0.968-0.796-1.51-1.044-0.56-0.256-1.154-0.41-1.752-0.46-0.874-0.074-1.764 0.068-2.586 0.424-0.562 0.24-1.070 0.576-1.506 0.98-0.448 0.416-0.816 0.902-1.094 1.434-0.386 0.742-0.596 1.57-0.606 2.422v0.362c0 0.274-0.054 0.532-0.15 0.764-0.1 0.244-0.25 0.464-0.436 0.65s-0.406 0.334-0.65 0.436c-0.228 0.090-0.486 0.144-0.76 0.144s-0.532-0.054-0.764-0.15c-0.244-0.1-0.464-0.25-0.65-0.436s-0.334-0.406-0.436-0.65c-0.096-0.232-0.15-0.49-0.15-0.764v-0.18c-0.016-0.67-0.138-1.27-0.352-1.828-0.222-0.574-0.54-1.1-0.934-1.554-0.568-0.656-1.292-1.17-2.116-1.49-0.554-0.238-1.132-0.374-1.708-0.416-0.614-0.044-1.224 0.022-1.802 0.184-0.846 0.238-1.628 0.682-2.274 1.304l-0.146 0.144c-0.198 0.196-0.416 0.34-0.65 0.436-0.244 0.1-0.504 0.152-0.768 0.152s-0.524-0.050-0.768-0.152c-0.232-0.096-0.452-0.24-0.648-0.434-0.198-0.198-0.34-0.418-0.438-0.65-0.1-0.244-0.152-0.504-0.152-0.768s0.050-0.524 0.152-0.768c0.096-0.232 0.24-0.452 0.434-0.648l0.122-0.122c0.452-0.46 0.796-0.968 1.044-1.51 0.256-0.56 0.41-1.154 0.46-1.752 0.074-0.874-0.068-1.764-0.424-2.586-0.24-0.562-0.576-1.070-0.98-1.506-0.416-0.45-0.902-0.816-1.434-1.094-0.742-0.386-1.57-0.596-2.422-0.606l-0.356 0.004c-0.274 0-0.532-0.054-0.764-0.15-0.244-0.1-0.464-0.25-0.65-0.436s-0.334-0.406-0.436-0.65c-0.096-0.232-0.15-0.49-0.15-0.764s0.054-0.532 0.15-0.764c0.1-0.244 0.25-0.464 0.436-0.65s0.406-0.334 0.65-0.436c0.232-0.096 0.49-0.15 0.764-0.15h0.18c0.67-0.016 1.27-0.138 1.828-0.352 0.574-0.222 1.1-0.54 1.554-0.934 0.656-0.568 1.17-1.292 1.49-2.116 0.238-0.554 0.374-1.132 0.416-1.708 0.044-0.614-0.022-1.224-0.184-1.802-0.238-0.85-0.682-1.632-1.304-2.276l-0.146-0.146c-0.194-0.196-0.338-0.414-0.434-0.648-0.102-0.242-0.152-0.504-0.154-0.766s0.050-0.524 0.152-0.768c0.096-0.232 0.24-0.452 0.434-0.648 0.198-0.196 0.416-0.34 0.65-0.436 0.242-0.102 0.504-0.152 0.766-0.154s0.524 0.050 0.768 0.152c0.232 0.096 0.452 0.24 0.648 0.434l0.122 0.122c0.46 0.452 0.968 0.796 1.51 1.044 0.56 0.256 1.154 0.41 1.752 0.46 0.74 0.064 1.49-0.028 2.202-0.274 0.192-0.024 0.374-0.074 0.538-0.146 0.57-0.244 1.078-0.578 1.514-0.982 0.45-0.416 0.816-0.902 1.094-1.434 0.384-0.74 0.594-1.57 0.604-2.42v-0.362c0-0.274 0.054-0.532 0.15-0.764 0.1-0.244 0.25-0.464 0.436-0.65s0.406-0.334 0.65-0.436c0.232-0.096 0.49-0.15 0.764-0.15s0.532 0.054 0.764 0.15c0.244 0.1 0.464 0.25 0.65 0.436s0.334 0.406 0.436 0.65c0.096 0.232 0.15 0.49 0.15 0.764v0.18c0.002 0.628 0.112 1.226 0.314 1.784 0.208 0.576 0.512 1.104 0.894 1.566 0.532 0.646 1.214 1.162 1.992 1.502 0.562 0.248 1.158 0.392 1.752 0.434 0.614 0.044 1.224-0.022 1.802-0.184 0.846-0.238 1.628-0.682 2.274-1.304l0.146-0.144c0.194-0.196 0.414-0.338 0.648-0.436 0.244-0.1 0.504-0.152 0.768-0.152s0.524 0.050 0.768 0.152c0.232 0.096 0.452 0.24 0.648 0.434 0.198 0.198 0.34 0.418 0.438 0.65 0.1 0.244 0.152 0.504 0.152 0.768s-0.050 0.524-0.152 0.768c-0.096 0.232-0.24 0.452-0.434 0.648l-0.122 0.122c-0.452 0.46-0.796 0.968-1.044 1.51-0.256 0.56-0.41 1.154-0.46 1.752-0.064 0.74 0.028 1.49 0.274 2.202 0.024 0.192 0.074 0.374 0.146 0.538 0.244 0.57 0.578 1.078 0.982 1.514 0.416 0.448 0.902 0.816 1.434 1.094 0.742 0.386 1.57 0.596 2.422 0.606l0.358-0.004c0.274 0 0.532 0.054 0.764 0.15 0.244 0.1 0.464 0.25 0.65 0.436s0.334 0.406 0.436 0.65c0.096 0.232 0.15 0.49 0.15 0.764s-0.054 0.532-0.15 0.764c-0.1 0.244-0.25 0.464-0.436 0.65s-0.406 0.334-0.65 0.436c-0.232 0.096-0.49 0.15-0.764 0.15h-0.18c-0.628 0.002-1.226 0.112-1.784 0.314-0.576 0.208-1.104 0.512-1.566 0.894-0.646 0.532-1.162 1.214-1.5 1.986z"></path>
</svg>
