<!-- Generated by IcoMoon.io -->
<svg version="1.1" xmlns="http://www.w3.org/2000/svg" width="48" height="48" viewBox="0 0 48 48">
<title>share</title>
<path d="M32.43 36.194c0.050-0.066 0.096-0.134 0.138-0.208 0.040-0.070 0.076-0.14 0.108-0.212 0.146-0.216 0.312-0.418 0.496-0.602 0.37-0.37 0.812-0.668 1.3-0.87 0.468-0.194 0.982-0.302 1.528-0.302s1.060 0.108 1.53 0.302c0.488 0.202 0.928 0.5 1.3 0.87s0.668 0.812 0.87 1.3c0.192 0.468 0.3 0.982 0.3 1.528s-0.108 1.060-0.302 1.53c-0.202 0.488-0.5 0.928-0.87 1.3s-0.812 0.668-1.3 0.87c-0.468 0.192-0.982 0.3-1.528 0.3s-1.060-0.108-1.53-0.302c-0.488-0.202-0.928-0.5-1.3-0.87s-0.668-0.812-0.87-1.3c-0.192-0.468-0.3-0.982-0.3-1.528s0.108-1.060 0.302-1.53c0.038-0.094 0.082-0.186 0.126-0.276zM32.602 12.112c-0.018-0.034-0.036-0.068-0.054-0.1-0.020-0.034-0.040-0.066-0.062-0.098-0.068-0.124-0.13-0.252-0.184-0.384-0.194-0.47-0.302-0.984-0.302-1.53s0.108-1.060 0.302-1.53c0.202-0.488 0.5-0.928 0.87-1.3s0.812-0.668 1.3-0.87c0.468-0.192 0.982-0.3 1.528-0.3s1.060 0.108 1.53 0.302c0.488 0.202 0.928 0.5 1.3 0.87s0.668 0.812 0.87 1.3c0.192 0.468 0.3 0.982 0.3 1.528s-0.108 1.060-0.302 1.53c-0.202 0.488-0.5 0.928-0.87 1.3s-0.812 0.668-1.3 0.87c-0.468 0.192-0.982 0.3-1.528 0.3s-1.060-0.108-1.53-0.302c-0.488-0.202-0.928-0.5-1.3-0.87-0.216-0.216-0.408-0.456-0.57-0.716zM15.398 21.888c0.018 0.034 0.036 0.068 0.054 0.1 0.020 0.034 0.040 0.066 0.062 0.098 0.068 0.124 0.13 0.252 0.184 0.384 0.194 0.47 0.302 0.984 0.302 1.53s-0.108 1.060-0.302 1.53c-0.054 0.132-0.116 0.26-0.184 0.384-0.022 0.032-0.042 0.066-0.062 0.1-0.020 0.032-0.038 0.066-0.054 0.098-0.162 0.26-0.354 0.5-0.57 0.716-0.37 0.37-0.812 0.668-1.3 0.87-0.468 0.194-0.982 0.302-1.528 0.302s-1.060-0.108-1.53-0.302c-0.488-0.202-0.928-0.5-1.3-0.87s-0.668-0.812-0.87-1.3c-0.192-0.468-0.3-0.982-0.3-1.528s0.108-1.060 0.302-1.53c0.202-0.488 0.5-0.928 0.87-1.3s0.812-0.668 1.3-0.87c0.468-0.192 0.982-0.3 1.528-0.3s1.060 0.108 1.53 0.302c0.488 0.202 0.928 0.5 1.3 0.87 0.216 0.216 0.408 0.456 0.57 0.716zM28.3 12.176l-10.616 6.194c-0.008-0.010-0.018-0.018-0.028-0.028-0.736-0.734-1.616-1.33-2.596-1.736-0.946-0.39-1.98-0.606-3.060-0.606s-2.114 0.216-3.060 0.606c-0.98 0.406-1.86 1-2.596 1.736s-1.332 1.618-1.738 2.598c-0.39 0.946-0.606 1.98-0.606 3.060s0.216 2.114 0.606 3.060c0.406 0.98 1 1.86 1.736 2.596s1.616 1.33 2.596 1.736c0.948 0.392 1.982 0.608 3.062 0.608s2.114-0.216 3.060-0.606c0.98-0.406 1.86-1 2.596-1.736 0.010-0.010 0.018-0.018 0.028-0.028l10.618 6.188c-0.196 0.694-0.302 1.426-0.302 2.182 0 1.080 0.216 2.114 0.606 3.060 0.406 0.98 1 1.86 1.736 2.596s1.616 1.33 2.596 1.736c0.948 0.392 1.982 0.608 3.062 0.608s2.114-0.216 3.060-0.606c0.98-0.406 1.86-1 2.596-1.736s1.33-1.616 1.736-2.596c0.392-0.948 0.608-1.982 0.608-3.062s-0.216-2.114-0.606-3.060c-0.406-0.98-1-1.86-1.736-2.596s-1.616-1.33-2.596-1.736c-0.948-0.392-1.982-0.608-3.062-0.608s-2.114 0.216-3.060 0.606c-0.98 0.406-1.86 1-2.596 1.736-0.006 0.006-0.014 0.014-0.020 0.020l-10.624-6.188c0.196-0.692 0.3-1.422 0.3-2.174s-0.104-1.482-0.3-2.176l10.616-6.196c0.008 0.010 0.018 0.018 0.028 0.028 0.736 0.736 1.616 1.33 2.596 1.736 0.946 0.392 1.98 0.608 3.060 0.608s2.114-0.216 3.060-0.606c0.98-0.406 1.86-1 2.596-1.736s1.33-1.616 1.736-2.596c0.392-0.948 0.608-1.982 0.608-3.062s-0.216-2.114-0.606-3.060c-0.406-0.98-1-1.86-1.736-2.596s-1.616-1.33-2.596-1.736c-0.948-0.392-1.982-0.608-3.062-0.608s-2.114 0.216-3.060 0.606c-0.98 0.406-1.86 1-2.596 1.736s-1.332 1.618-1.738 2.598c-0.39 0.946-0.606 1.98-0.606 3.060 0 0.752 0.104 1.482 0.3 2.176z"></path>
</svg>
