<!-- Generated by IcoMoon.io -->
<svg version="1.1" xmlns="http://www.w3.org/2000/svg" width="48" height="48" viewBox="0 0 48 48">
<title>shuffle</title>
<path d="M8.685 42.285l32.115-32.115v5.431c0 1.159 0.941 2.1 2.1 2.1s2.1-0.941 2.1-2.1v-10.5c0-0.006 0-0.010 0-0.017-0.002-0.277-0.059-0.542-0.157-0.785-0.212-0.514-0.624-0.926-1.14-1.14-0.242-0.099-0.506-0.155-0.783-0.158-0.006 0-0.013 0-0.019 0h-10.5c-1.159 0-2.1 0.941-2.1 2.1s0.941 2.1 2.1 2.1h5.431l-32.115 32.115c-0.821 0.821-0.821 2.15 0 2.969s2.15 0.821 2.969 0zM28.815 31.785l9.015 9.015h-5.431c-1.159 0-2.1 0.941-2.1 2.1s0.941 2.1 2.1 2.1h10.5c0.006 0 0.010 0 0.017 0 0.277-0.002 0.542-0.059 0.785-0.157 0.514-0.212 0.926-0.626 1.14-1.14 0.101-0.242 0.155-0.506 0.158-0.785 0-0.006 0-0.010 0-0.017v-10.5c0-1.159-0.941-2.1-2.1-2.1s-2.1 0.941-2.1 2.1v5.431l-9.015-9.015c-0.821-0.821-2.15-0.821-2.969 0s-0.821 2.15 0 2.969zM5.715 8.685l10.5 10.5c0.821 0.821 2.15 0.821 2.969 0s0.821-2.15 0-2.969l-10.5-10.5c-0.821-0.821-2.15-0.821-2.969 0s-0.821 2.15 0 2.969z"></path>
</svg>
