<!-- Generated by IcoMoon.io -->
<svg version="1.1" xmlns="http://www.w3.org/2000/svg" width="48" height="48" viewBox="0 0 48 48">
<title>volumeLow</title>
<path d="M25.735 34.735c-0.576 0-1.152-0.22-1.591-0.659-0.879-0.879-0.879-2.303 0-3.182 3.802-3.802 3.802-9.987 0-13.789-0.879-0.879-0.879-2.303 0-3.182s2.303-0.879 3.182 0c5.556 5.556 5.556 14.596 0 20.153-0.439 0.439-1.015 0.659-1.591 0.659z"></path>
<path d="M19.5 45c-0.39 0-0.774-0.152-1.061-0.439l-11.561-11.561h-5.379c-0.828 0-1.5-0.672-1.5-1.5v-15c0-0.828 0.672-1.5 1.5-1.5h5.379l11.561-11.561c0.429-0.429 1.074-0.557 1.635-0.325s0.926 0.779 0.926 1.386v39c0 0.607-0.365 1.154-0.926 1.386-0.186 0.077-0.381 0.114-0.574 0.114z"></path>
</svg>
