<!-- Generated by IcoMoon.io -->
<svg version="1.1" xmlns="http://www.w3.org/2000/svg" width="48" height="48" viewBox="0 0 48 48">
<title>dynamicCompressor</title>
<path fill="#3367d6" d="M42.667 45.333v-26.667c0-1.472-1.195-2.667-2.667-2.667s-2.667 1.195-2.667 2.667v26.667c0 1.472 1.195 2.667 2.667 2.667s2.667-1.195 2.667-2.667zM26.667 45.333v-42.667c0-1.472-1.195-2.667-2.667-2.667s-2.667 1.195-2.667 2.667v42.667c0 1.472 1.195 2.667 2.667 2.667s2.667-1.195 2.667-2.667zM10.667 45.333v-16c0-1.472-1.195-2.667-2.667-2.667s-2.667 1.195-2.667 2.667v16c0 1.472 1.195 2.667 2.667 2.667s2.667-1.195 2.667-2.667z"></path>
</svg>
