<!-- Generated by IcoMoon.io -->
<svg version="1.1" xmlns="http://www.w3.org/2000/svg" width="48" height="48" viewBox="0 0 48 48">
<title>fullscreen</title>
<path fill="#3367d6" d="M16 4h-6c-0.81 0-1.586 0.162-2.296 0.456-0.734 0.304-1.394 0.75-1.946 1.302s-0.998 1.212-1.302 1.946c-0.294 0.71-0.456 1.486-0.456 2.296v6c0 1.104 0.896 2 2 2s2-0.896 2-2v-6c0-0.274 0.054-0.532 0.15-0.764 0.1-0.244 0.25-0.464 0.436-0.65s0.406-0.334 0.65-0.436c0.232-0.096 0.49-0.15 0.764-0.15h6c1.104 0 2-0.896 2-2s-0.896-2-2-2zM44 16v-6c0-0.81-0.162-1.586-0.456-2.296-0.304-0.736-0.75-1.396-1.302-1.948s-1.212-0.998-1.948-1.302c-0.708-0.292-1.484-0.454-2.294-0.454h-6c-1.104 0-2 0.896-2 2s0.896 2 2 2h6c0.274 0 0.532 0.054 0.764 0.15 0.244 0.1 0.464 0.25 0.65 0.436s0.334 0.406 0.436 0.65c0.096 0.232 0.15 0.49 0.15 0.764v6c0 1.104 0.896 2 2 2s2-0.896 2-2zM32 44h6c0.81 0 1.586-0.162 2.296-0.456 0.736-0.304 1.396-0.75 1.948-1.302s0.998-1.212 1.302-1.948c0.292-0.708 0.454-1.484 0.454-2.294v-6c0-1.104-0.896-2-2-2s-2 0.896-2 2v6c0 0.274-0.054 0.532-0.15 0.764-0.1 0.244-0.25 0.464-0.436 0.65s-0.406 0.334-0.65 0.436c-0.232 0.096-0.49 0.15-0.764 0.15h-6c-1.104 0-2 0.896-2 2s0.896 2 2 2zM4 32v6c0 0.81 0.162 1.586 0.456 2.296 0.304 0.736 0.75 1.396 1.302 1.948s1.212 0.998 1.948 1.302c0.708 0.292 1.484 0.454 2.294 0.454h6c1.104 0 2-0.896 2-2s-0.896-2-2-2h-6c-0.274 0-0.532-0.054-0.764-0.15-0.244-0.1-0.464-0.25-0.65-0.436s-0.334-0.406-0.436-0.65c-0.096-0.232-0.15-0.49-0.15-0.764v-6c0-1.104-0.896-2-2-2s-2 0.896-2 2z"></path>
</svg>
