<!-- Generated by IcoMoon.io -->
<svg version="1.1" xmlns="http://www.w3.org/2000/svg" width="48" height="48" viewBox="0 0 48 48">
<title>info</title>
<path fill="#3367d6" d="M48 24c0-3.247-0.646-6.349-1.817-9.179-1.217-2.939-3-5.581-5.21-7.791s-4.852-3.995-7.791-5.21c-2.832-1.174-5.935-1.82-9.181-1.82s-6.349 0.646-9.179 1.817c-2.939 1.217-5.581 3-7.791 5.212s-3.995 4.852-5.212 7.791c-1.172 2.83-1.817 5.932-1.817 9.179s0.646 6.349 1.817 9.179c1.217 2.939 3 5.581 5.21 7.791s4.852 3.995 7.791 5.21c2.832 1.174 5.935 1.82 9.181 1.82s6.349-0.646 9.179-1.817c2.939-1.217 5.581-3 7.791-5.21s3.995-4.852 5.21-7.791c1.174-2.832 1.82-5.935 1.82-9.181zM43.636 24c0 2.664-0.53 5.199-1.486 7.51-0.995 2.402-2.452 4.564-4.265 6.375s-3.975 3.271-6.375 4.265c-2.311 0.956-4.846 1.486-7.51 1.486s-5.199-0.53-7.51-1.486c-2.402-0.995-4.564-2.452-6.375-4.265-1.813-1.813-3.271-3.975-4.265-6.375-0.956-2.311-1.486-4.846-1.486-7.51s0.53-5.199 1.486-7.51c0.995-2.402 2.452-4.564 4.265-6.375s3.975-3.271 6.375-4.265c2.311-0.956 4.846-1.486 7.51-1.486s5.199 0.53 7.51 1.486c2.402 0.995 4.564 2.452 6.375 4.265 1.813 1.813 3.271 3.975 4.265 6.375 0.956 2.311 1.486 4.846 1.486 7.51zM26.182 32.727v-8.727c0-1.204-0.977-2.182-2.182-2.182s-2.182 0.977-2.182 2.182v8.727c0 1.204 0.977 2.182 2.182 2.182s2.182-0.977 2.182-2.182zM26.182 15.273c0-1.204-0.977-2.182-2.182-2.182s-2.182 0.977-2.182 2.182 0.977 2.182 2.182 2.182 2.182-0.977 2.182-2.182z"></path>
</svg>
