<!-- Generated by IcoMoon.io -->
<svg version="1.1" xmlns="http://www.w3.org/2000/svg" width="48" height="48" viewBox="0 0 48 48">
<title>media_youtube</title>
<path fill="#3367d6" d="M43.126 13.274c0.574 3.058 0.896 6.59 0.874 10.25 0.038 3.056-0.246 6.534-0.874 10.042-0.114 0.416-0.3 0.806-0.544 1.15-0.232 0.328-0.518 0.614-0.846 0.846-0.318 0.224-0.678 0.4-1.052 0.506-0.202 0.054-0.504 0.114-0.914 0.176-0.452 0.068-0.992 0.132-1.604 0.19-1.502 0.142-3.354 0.244-5.236 0.316-1.484 0.056-2.97 0.094-4.294 0.12-1.060 0.020-2.014 0.032-2.778 0.040-1.148 0.010-1.858 0.010-1.858 0.010s-0.71 0-1.856-0.010c-0.764-0.008-1.718-0.020-2.778-0.040-1.324-0.026-2.812-0.064-4.294-0.12-1.882-0.072-3.734-0.174-5.236-0.316-0.614-0.058-1.154-0.122-1.604-0.19-0.41-0.062-0.71-0.122-0.892-0.17-0.41-0.114-0.792-0.296-1.132-0.536-0.328-0.232-0.616-0.516-0.848-0.844-0.21-0.296-0.378-0.632-0.492-1.002-0.572-3.052-0.89-6.572-0.868-10.22-0.042-3.080 0.242-6.584 0.874-10.12 0.114-0.416 0.3-0.806 0.544-1.15 0.232-0.328 0.518-0.614 0.846-0.846 0.318-0.224 0.678-0.4 1.052-0.506 0.202-0.054 0.504-0.114 0.914-0.176 0.452-0.068 0.992-0.132 1.604-0.19 1.502-0.142 3.354-0.244 5.236-0.316 1.484-0.056 2.97-0.094 4.294-0.12 2.654-0.048 4.636-0.048 4.636-0.048s1.984 0 4.636 0.046c1.326 0.024 2.812 0.058 4.296 0.11 1.888 0.066 3.748 0.16 5.258 0.29 0.614 0.052 1.156 0.11 1.61 0.174 0.41 0.056 0.716 0.112 0.844 0.142 0.438 0.126 0.842 0.33 1.196 0.598 0.32 0.242 0.598 0.536 0.818 0.87 0.206 0.31 0.366 0.66 0.468 1.044zM47.020 12.354c-0.212-0.85-0.562-1.632-1.024-2.33-0.476-0.72-1.068-1.344-1.742-1.854-0.746-0.564-1.592-0.988-2.498-1.25-0.476-0.118-0.93-0.196-1.408-0.262-0.544-0.076-1.158-0.14-1.814-0.196-1.608-0.138-3.548-0.234-5.462-0.302-1.514-0.052-3.026-0.088-4.366-0.112-2.684-0.048-4.706-0.048-4.706-0.048s-0.734 0-1.896 0.012c-0.774 0.008-1.742 0.020-2.816 0.040-1.342 0.026-2.856 0.064-4.372 0.122-1.91 0.074-3.846 0.178-5.456 0.33-0.66 0.062-1.278 0.134-1.828 0.216-0.482 0.074-0.946 0.16-1.348 0.268-0.87 0.246-1.644 0.62-2.326 1.102-0.706 0.498-1.312 1.108-1.802 1.798-0.54 0.762-0.938 1.622-1.174 2.536-0.012 0.048-0.022 0.098-0.030 0.142-0.686 3.796-0.998 7.586-0.952 10.962-0.024 3.848 0.322 7.662 0.954 11.004 0.012 0.062 0.026 0.124 0.042 0.176 0.24 0.842 0.616 1.614 1.1 2.298 0.5 0.706 1.112 1.31 1.804 1.798 0.714 0.504 1.514 0.884 2.362 1.122 0.424 0.114 0.888 0.2 1.372 0.274 0.548 0.082 1.168 0.154 1.826 0.216 1.61 0.152 3.548 0.256 5.458 0.33 1.516 0.058 3.028 0.096 4.372 0.122 2.686 0.052 4.71 0.052 4.71 0.052s2.024 0 4.712-0.052c1.342-0.026 2.856-0.064 4.372-0.122 1.91-0.074 3.848-0.178 5.458-0.33 0.66-0.062 1.278-0.134 1.826-0.216 0.482-0.072 0.946-0.16 1.35-0.268 0.87-0.246 1.642-0.62 2.326-1.102 0.706-0.498 1.312-1.108 1.8-1.798 0.54-0.762 0.94-1.622 1.174-2.536 0.012-0.050 0.024-0.1 0.030-0.142 0.68-3.768 0.992-7.53 0.952-10.88 0.024-3.85-0.322-7.666-0.954-11.008-0.008-0.040-0.016-0.080-0.024-0.114zM21.5 26.602v-6.204l5.454 3.102zM20.488 31.778l11.5-6.54c0.96-0.546 1.296-1.768 0.75-2.728-0.186-0.328-0.452-0.584-0.75-0.75l-11.5-6.54c-0.96-0.546-2.182-0.21-2.728 0.75-0.18 0.316-0.264 0.66-0.262 0.988v13.080c0 1.104 0.896 2 2 2 0.364 0 0.704-0.098 0.988-0.262z"></path>
</svg>
