<!-- Generated by IcoMoon.io -->
<svg version="1.1" xmlns="http://www.w3.org/2000/svg" width="48" height="48" viewBox="0 0 48 48">
<title>media_spotify</title>
<path fill="#3367d6" d="M24 0c-13.2 0-24 10.8-24 24s10.8 24 24 24 24-10.8 24-24-10.678-24-24-24zM35.044 34.678c-0.478 0.722-1.322 0.956-2.044 0.478-5.644-3.478-12.722-4.2-21.122-2.278-0.844 0.244-1.556-0.356-1.8-1.078-0.244-0.844 0.356-1.556 1.078-1.8 9.122-2.044 17.044-1.2 23.278 2.644 0.844 0.356 0.966 1.313 0.609 2.034zM37.922 28.078c-0.6 0.844-1.678 1.2-2.522 0.6-6.478-3.956-16.322-5.156-23.878-2.756-0.956 0.244-2.044-0.244-2.278-1.2-0.244-0.956 0.244-2.044 1.2-2.278 8.756-2.644 19.556-1.322 27 3.244 0.713 0.356 1.078 1.556 0.478 2.391zM38.156 21.356c-7.678-4.556-20.522-5.044-27.844-2.756-1.2 0.356-2.4-0.356-2.756-1.444-0.356-1.2 0.356-2.4 1.444-2.756 8.522-2.522 22.556-2.044 31.444 3.244 1.078 0.6 1.444 2.044 0.844 3.122-0.609 0.834-2.044 1.191-3.131 0.591z"></path>
</svg>
