<!-- Generated by IcoMoon.io -->
<svg version="1.1" xmlns="http://www.w3.org/2000/svg" width="48" height="48" viewBox="0 0 48 48">
<title>muted</title>
<path fill="#3367d6" d="M45 29.023v3.977h-3.977l-5.023-5.023-5.023 5.023h-3.977v-3.977l5.023-5.023-5.023-5.023v-3.977h3.977l5.023 5.023 5.023-5.023h3.977v3.977l-5.023 5.023 5.023 5.023z"></path>
<path fill="#3367d6" d="M19.5 45c-0.39 0-0.774-0.152-1.061-0.439l-11.561-11.561h-5.379c-0.828 0-1.5-0.672-1.5-1.5v-15c0-0.828 0.672-1.5 1.5-1.5h5.379l11.561-11.561c0.429-0.429 1.074-0.557 1.635-0.325s0.926 0.779 0.926 1.386v39c0 0.607-0.365 1.154-0.926 1.386-0.186 0.077-0.381 0.114-0.574 0.114z"></path>
</svg>
