<!-- Generated by IcoMoon.io -->
<svg version="1.1" xmlns="http://www.w3.org/2000/svg" width="48" height="48" viewBox="0 0 48 48">
<title>open</title>
<path fill="#3367d6" d="M40 30v8c0 0.274-0.054 0.532-0.15 0.764-0.1 0.244-0.25 0.464-0.436 0.65s-0.406 0.334-0.65 0.436c-0.232 0.096-0.49 0.15-0.764 0.15h-28c-0.274 0-0.532-0.054-0.764-0.15-0.244-0.1-0.464-0.25-0.65-0.436s-0.334-0.406-0.436-0.65c-0.096-0.232-0.15-0.49-0.15-0.764v-8c0-1.104-0.896-2-2-2s-2 0.896-2 2v8c0 0.81 0.162 1.586 0.456 2.296 0.304 0.736 0.75 1.396 1.302 1.948s1.212 0.998 1.948 1.302c0.708 0.292 1.484 0.454 2.294 0.454h28c0.81 0 1.586-0.162 2.296-0.456 0.736-0.304 1.396-0.75 1.948-1.302s0.998-1.212 1.302-1.948c0.292-0.708 0.454-1.484 0.454-2.294v-8c0-1.104-0.896-2-2-2s-2 0.896-2 2zM22 10.828v19.172c0 1.104 0.896 2 2 2s2-0.896 2-2v-19.172l6.586 6.586c0.782 0.782 2.048 0.782 2.828 0s0.782-2.048 0-2.828l-10-10c-0.002-0.002-0.006-0.004-0.008-0.008-0.19-0.188-0.408-0.33-0.64-0.426-0.49-0.202-1.042-0.202-1.532 0-0.232 0.096-0.45 0.238-0.64 0.426-0.002 0.002-0.006 0.004-0.008 0.008l-10 10c-0.782 0.782-0.782 2.048 0 2.828s2.048 0.782 2.828 0z"></path>
</svg>
