<!-- Generated by IcoMoon.io -->
<svg version="1.1" xmlns="http://www.w3.org/2000/svg" width="48" height="48" viewBox="0 0 48 48">
<title>pause</title>
<path fill="#3367d6" d="M8.333 0.5c-1.441 0-2.611 1.17-2.611 2.611v41.778c0 1.441 1.17 2.611 2.611 2.611h10.445c1.441 0 2.611-1.17 2.611-2.611v-41.778c0-1.441-1.17-2.611-2.611-2.611zM10.944 5.722h5.222v36.556h-5.222zM29.222 0.5c-1.441 0-2.611 1.17-2.611 2.611v41.778c0 1.441 1.17 2.611 2.611 2.611h10.445c1.441 0 2.611-1.17 2.611-2.611v-41.778c0-1.441-1.17-2.611-2.611-2.611zM31.834 5.722h5.222v36.556h-5.222z"></path>
</svg>
