<!-- Generated by IcoMoon.io -->
<svg version="1.1" xmlns="http://www.w3.org/2000/svg" width="48" height="48" viewBox="0 0 48 48">
<title>playbackSpeed</title>
<path fill="#3367d6" d="M20.314 9.472c0.21-0.21 0.448-0.366 0.7-0.472 0.262-0.11 0.546-0.167 0.83-0.167s0.568 0.054 0.832 0.163c0.254 0.104 0.492 0.258 0.702 0.468s0.366 0.448 0.472 0.7c0.11 0.262 0.167 0.546 0.167 0.83s-0.054 0.568-0.163 0.832c-0.104 0.254-0.258 0.492-0.468 0.702-0.208 0.208-0.442 0.364-0.691 0.468-0.258 0.11-0.537 0.167-0.819 0.171h-19.543c-1.196 0-2.167 0.971-2.167 2.167s0.971 2.167 2.167 2.167h19.593c0.836-0.009 1.673-0.18 2.459-0.511 0.758-0.321 1.467-0.791 2.078-1.404 0.618-0.622 1.088-1.341 1.404-2.11 0.327-0.797 0.49-1.647 0.488-2.492s-0.173-1.694-0.505-2.49c-0.321-0.767-0.795-1.484-1.415-2.102s-1.341-1.088-2.11-1.404c-0.799-0.327-1.647-0.49-2.492-0.488s-1.692 0.169-2.487 0.503c-0.769 0.321-1.486 0.793-2.104 1.415-0.845 0.849-0.841 2.221 0.009 3.064s2.221 0.839 3.064-0.009zM23.742 41.583c0.618 0.622 1.335 1.094 2.102 1.415 0.795 0.331 1.642 0.498 2.487 0.503s1.692-0.158 2.492-0.488c0.769-0.316 1.488-0.784 2.11-1.404s1.094-1.335 1.415-2.102c0.331-0.795 0.498-1.642 0.503-2.487s-0.158-1.692-0.488-2.492c-0.316-0.769-0.784-1.488-1.404-2.11-0.611-0.615-1.32-1.083-2.078-1.404-0.786-0.331-1.623-0.503-2.459-0.511l-26.089-0.002c-1.196 0-2.167 0.971-2.167 2.167s0.971 2.167 2.167 2.167h26.043c0.282 0.004 0.561 0.061 0.821 0.171 0.249 0.106 0.483 0.26 0.691 0.468 0.21 0.21 0.364 0.451 0.468 0.702 0.108 0.264 0.163 0.546 0.163 0.832s-0.056 0.568-0.167 0.83c-0.106 0.251-0.262 0.49-0.472 0.7s-0.451 0.364-0.702 0.468c-0.264 0.108-0.548 0.163-0.834 0.163s-0.568-0.056-0.83-0.167c-0.251-0.106-0.49-0.262-0.7-0.472-0.843-0.849-2.216-0.854-3.064-0.009s-0.854 2.216-0.009 3.064zM37.945 16.282c0.314-0.314 0.672-0.546 1.053-0.704 0.397-0.163 0.821-0.245 1.246-0.245s0.849 0.084 1.246 0.249c0.379 0.158 0.737 0.392 1.051 0.706s0.546 0.672 0.704 1.053c0.163 0.397 0.245 0.821 0.245 1.246s-0.084 0.849-0.249 1.246c-0.158 0.379-0.392 0.737-0.706 1.051-0.314 0.312-0.669 0.546-1.049 0.702-0.392 0.163-0.815 0.247-1.239 0.247h-37.912c-1.196 0-2.167 0.971-2.167 2.167s0.971 2.167 2.167 2.167h37.921c0.982-0.002 1.967-0.193 2.892-0.576 0.893-0.371 1.727-0.916 2.45-1.638s1.274-1.56 1.647-2.455c0.386-0.929 0.578-1.918 0.581-2.903s-0.188-1.976-0.572-2.905c-0.371-0.897-0.919-1.735-1.64-2.459s-1.56-1.274-2.455-1.647c-0.934-0.388-1.922-0.581-2.908-0.583s-1.976 0.188-2.905 0.572c-0.897 0.371-1.735 0.919-2.459 1.64-0.847 0.845-0.849 2.216-0.004 3.064s2.216 0.849 3.064 0.004z"></path>
</svg>
