<!-- Generated by IcoMoon.io -->
<svg version="1.1" xmlns="http://www.w3.org/2000/svg" width="48" height="48" viewBox="0 0 48 48">
<title>replay</title>
<path fill="#3367d6" d="M47.071 24c0 12.707-10.364 23.072-23.072 23.072-6.879 0-13.368-3.034-17.754-8.321-0.3-0.391-0.27-0.961 0.060-1.292l4.116-4.146c0.21-0.18 0.481-0.27 0.751-0.27 0.27 0.030 0.541 0.15 0.691 0.361 2.944 3.815 7.36 5.978 12.136 5.978 8.472 0 15.381-6.909 15.381-15.381s-6.909-15.381-15.381-15.381c-3.935 0-7.66 1.502-10.454 4.116l4.116 4.146c0.571 0.541 0.721 1.382 0.42 2.073-0.3 0.721-0.991 1.202-1.772 1.202h-13.458c-1.051 0-1.923-0.871-1.923-1.923v-13.458c0-0.781 0.481-1.472 1.202-1.772 0.691-0.3 1.532-0.15 2.073 0.42l3.905 3.875c4.236-3.995 9.974-6.369 15.892-6.369 12.707 0 23.072 10.364 23.072 23.072z"></path>
</svg>
