<!-- Generated by IcoMoon.io -->
<svg version="1.1" xmlns="http://www.w3.org/2000/svg" width="48" height="48" viewBox="0 0 48 48">
<title>stream</title>
<path fill="#3367d6" d="M22 24v13.172l-4.586-4.586c-0.782-0.782-2.048-0.782-2.828 0s-0.782 2.048 0 2.828l8 8c0.192 0.192 0.414 0.336 0.65 0.434 0.24 0.098 0.494 0.15 0.748 0.152 0.266 0.002 0.532-0.048 0.78-0.152 0.236-0.098 0.458-0.242 0.65-0.434l8-8c0.782-0.782 0.782-2.048 0-2.828s-2.048-0.782-2.828 0l-4.586 4.586v-13.172c0-1.104-0.896-2-2-2s-2 0.896-2 2zM42.91 37.816c1.326-0.932 2.41-2.090 3.232-3.384 0.852-1.344 1.42-2.832 1.688-4.372s0.238-3.132-0.11-4.686c-0.334-1.496-0.964-2.95-1.896-4.278-0.81-1.152-1.788-2.12-2.882-2.894-1.132-0.8-2.382-1.388-3.692-1.754-1.054-0.292-2.144-0.444-3.242-0.448h-1.046c-0.62-1.768-1.496-3.388-2.576-4.826-1.432-1.908-3.22-3.496-5.238-4.69s-4.27-1.996-6.632-2.334c-2.276-0.322-4.65-0.214-7.008 0.392s-4.49 1.652-6.328 3.032c-1.908 1.432-3.496 3.22-4.69 5.238s-1.996 4.27-2.334 6.632c-0.324 2.276-0.216 4.65 0.39 7.008 0.742 2.892 2.15 5.45 3.966 7.468 0.74 0.82 2.004 0.888 2.824 0.148s0.888-2.004 0.148-2.824c-1.384-1.538-2.484-3.52-3.066-5.786-0.472-1.84-0.556-3.684-0.304-5.448 0.262-1.834 0.886-3.586 1.816-5.16s2.168-2.966 3.65-4.078c1.426-1.070 3.082-1.884 4.922-2.356s3.684-0.556 5.45-0.304c1.834 0.262 3.586 0.886 5.16 1.816s2.964 2.166 4.076 3.648c1.070 1.426 1.884 3.082 2.356 4.922 0.228 0.87 1.008 1.502 1.936 1.502h2.512c0.74 0.002 1.474 0.104 2.18 0.302 0.878 0.246 1.71 0.638 2.46 1.168 0.724 0.512 1.376 1.156 1.92 1.928 0.626 0.89 1.042 1.858 1.264 2.85 0.232 1.032 0.252 2.096 0.072 3.124s-0.558 2.022-1.126 2.916c-0.544 0.858-1.264 1.628-2.154 2.254-0.904 0.636-1.12 1.882-0.486 2.786s1.882 1.12 2.786 0.486z"></path>
</svg>
