<!-- Generated by IcoMoon.io -->
<svg version="1.1" xmlns="http://www.w3.org/2000/svg" width="48" height="48" viewBox="0 0 48 48">
<title>volumeMed</title>
<path fill="#3367d6" d="M33.114 38.621c-0.562 0-1.124-0.214-1.553-0.643-0.858-0.858-0.858-2.248 0-3.106 5.995-5.995 5.995-15.749 0-21.743-0.858-0.858-0.858-2.248 0-3.106s2.248-0.858 3.106 0c3.734 3.733 5.79 8.697 5.79 13.978s-2.056 10.244-5.79 13.978c-0.429 0.429-0.991 0.643-1.553 0.643v0zM25.311 34.48c-0.562 0-1.124-0.214-1.553-0.643-0.858-0.858-0.858-2.248 0-3.106 3.711-3.711 3.711-9.749 0-13.46-0.858-0.858-0.858-2.248 0-3.106s2.248-0.858 3.106 0c5.424 5.424 5.424 14.249 0 19.673-0.429 0.429-0.991 0.643-1.553 0.643z"></path>
<path fill="#3367d6" d="M19.225 44.5c-0.381 0-0.756-0.149-1.036-0.429l-11.285-11.285h-5.251c-0.809 0-1.464-0.656-1.464-1.464v-14.643c0-0.809 0.656-1.464 1.464-1.464h5.251l11.285-11.285c0.419-0.419 1.048-0.544 1.596-0.317s0.904 0.761 0.904 1.353v38.071c0 0.592-0.357 1.126-0.904 1.353-0.181 0.075-0.372 0.111-0.56 0.111z"></path>
</svg>
