<!-- Generated by IcoMoon.io -->
<svg version="1.1" xmlns="http://www.w3.org/2000/svg" width="48" height="48" viewBox="0 0 48 48">
<title>volumeHigh</title>
<path fill="#3367d6" d="M39.178 42.090c-0.542 0-1.084-0.207-1.497-0.62-0.827-0.827-0.827-2.168 0-2.995 3.866-3.867 5.996-9.007 5.996-14.475s-2.129-10.608-5.996-14.475c-0.827-0.827-0.827-2.168 0-2.995s2.168-0.827 2.995 0c4.666 4.666 7.236 10.871 7.236 17.47s-2.57 12.803-7.236 17.47c-0.413 0.413-0.955 0.62-1.497 0.62zM31.656 38.097c-0.542 0-1.084-0.207-1.497-0.62-0.827-0.827-0.827-2.168 0-2.995 5.78-5.78 5.78-15.184 0-20.964-0.827-0.827-0.827-2.168 0-2.995s2.168-0.827 2.995 0c3.6 3.6 5.582 8.386 5.582 13.476s-1.982 9.877-5.582 13.477c-0.413 0.414-0.955 0.62-1.497 0.62v0zM24.133 34.104c-0.542 0-1.084-0.207-1.497-0.62-0.827-0.827-0.827-2.168 0-2.995 3.578-3.578 3.578-9.4 0-12.977-0.827-0.827-0.827-2.168 0-2.995s2.168-0.827 2.995 0c5.229 5.229 5.229 13.738 0 18.967-0.413 0.413-0.955 0.62-1.497 0.62z"></path>
<path fill="#3367d6" d="M18.265 43.765c-0.367 0-0.728-0.143-0.999-0.414l-10.881-10.881h-5.062c-0.78 0-1.412-0.632-1.412-1.412v-14.118c0-0.78 0.632-1.412 1.412-1.412h5.062l10.881-10.881c0.404-0.404 1.011-0.525 1.539-0.306s0.872 0.733 0.872 1.304v36.706c0 0.571-0.344 1.086-0.872 1.304-0.175 0.072-0.358 0.107-0.54 0.107z"></path>
</svg>
