<?xml version="1.0" encoding="utf-8"?>
<!-- Generated by IcoMoon.io -->
<!DOCTYPE svg PUBLIC "-//W3C//DTD SVG 1.1//EN" "http://www.w3.org/Graphics/SVG/1.1/DTD/svg11.dtd">
<svg version="1.1" xmlns="http://www.w3.org/2000/svg" xmlns:xlink="http://www.w3.org/1999/xlink" width="512" height="512" viewBox="0 0 512 512">
<g>
</g>
	<path d="M287.411 46.080c-113.817 0-206.362 91.187-209.126 204.672h-62.925l94.183 104.986 94.157-104.986h-73.113c2.765-84.505 71.885-152.192 156.826-152.192 86.682 0 156.928 70.477 156.928 157.44s-70.246 157.44-156.928 157.44c-34.765 0-66.867-11.366-92.877-30.541l-35.993 38.502c35.533 27.878 80.256 44.519 128.87 44.519 115.558 0 209.255-93.978 209.255-209.92-0.026-115.942-93.721-209.92-209.255-209.92zM268.8 143.36v120.064l76.928 76.928 25.344-25.344-66.432-66.432v-105.216h-35.84z" fill="#000000" />
</svg>
